<svg width="100" height="100" viewBox="0 0 100 100" fill="none" xmlns="http://www.w3.org/2000/svg">
<path d="M90.1255 67.459C89.9153 66.6672 89.5754 65.916 89.1196 65.2355C89.2172 64.8773 89.2919 64.5133 89.3415 64.1453C89.6653 61.8109 88.8559 59.6738 87.3309 58.0203C86.5047 57.1172 85.6192 56.5207 84.6813 56.1547C85.2969 53.5207 85.6083 50.825 85.6098 48.1203C85.6098 46.8848 85.5399 45.6746 85.4227 44.4824C85.3618 43.8871 85.2879 43.2934 85.2012 42.7012C84.9329 40.9539 84.5344 39.2289 84.0094 37.541C83.6653 36.4319 83.2672 35.3402 82.8165 34.2699C82.1411 32.6848 81.3524 31.1504 80.4567 29.6785C79.8692 28.6992 79.2294 27.7523 78.5399 26.8418C78.202 26.382 77.8501 25.9331 77.4837 25.4957C76.3985 24.177 75.2192 22.9386 73.9551 21.7902C73.5352 21.4042 73.1036 21.0314 72.6602 20.6723C72.2239 20.3083 71.7778 19.9561 71.3227 19.616C70.4067 18.9342 69.4602 18.2946 68.486 17.6992C63.1028 14.4297 56.7899 12.5547 50.0426 12.5547C30.3973 12.5547 14.4755 28.4773 14.4755 48.1215C14.4747 50.8605 14.7919 53.5902 15.4208 56.2559C14.577 56.6223 13.7684 57.1934 13.0184 58.0195C11.4938 59.6723 10.684 61.8016 11.0079 64.1359C11.0571 64.5066 11.1309 64.8738 11.2294 65.2348C10.7739 65.9156 10.4343 66.6672 10.2243 67.459C9.75553 69.2406 9.90983 70.8473 10.5055 72.2551C9.85788 74.0949 10.0196 76.0543 10.863 77.7578C11.4762 79.002 12.354 79.9645 13.436 80.8246C14.7223 81.8473 16.3325 82.716 18.2747 83.5496C20.5919 84.5379 23.4204 85.4664 24.7067 85.807C28.0294 86.6672 31.2153 87.2125 34.4442 87.2391C39.0446 87.2816 43.0063 86.2 45.8426 83.4316C47.236 83.6023 48.6387 83.6879 50.0426 83.6871C51.5258 83.684 53.0075 83.5906 54.4794 83.4078C57.309 86.1937 61.286 87.2852 65.9032 87.2414C69.1317 87.2156 72.3176 86.6703 75.6317 85.809C76.9266 85.4684 79.754 84.5398 82.0723 83.5516C84.0145 82.7168 85.6247 81.848 86.9196 80.827C87.9934 79.9664 88.8704 79.0043 89.484 77.7602C90.336 76.0562 90.4891 74.0969 89.8504 72.257C90.4403 70.8492 90.5938 69.2391 90.1255 67.459ZM86.8286 72.1359C87.4813 73.3746 87.5231 74.7742 86.9473 76.0777C86.0739 78.0531 83.9044 79.6094 79.6907 81.2801C77.0704 82.3191 74.6712 82.9836 74.6501 82.9894C71.1844 83.8883 68.0501 84.3449 65.3368 84.3449C60.8438 84.3449 57.5004 83.1051 55.3801 80.6566C51.7946 81.2676 48.1337 81.2883 44.5415 80.7184C42.4184 83.1262 39.0942 84.3449 34.6391 84.3449C31.9255 84.3449 28.7915 83.8883 25.3255 82.9894C25.3044 82.9836 22.9059 82.3191 20.2848 81.2801C16.0715 79.6094 13.9012 78.0543 13.0282 76.0777C12.4524 74.7742 12.4942 73.3746 13.1469 72.1359C13.2071 72.0207 13.2719 71.9086 13.3411 71.8C12.9499 71.2125 12.6875 70.5488 12.5712 69.8523C12.4548 69.1562 12.4872 68.4434 12.6661 67.7605C12.9255 66.775 13.461 65.9555 14.1883 65.3668C13.838 64.791 13.6081 64.1504 13.5126 63.4832C13.3032 62.0324 13.7848 60.584 14.868 59.4027C15.7118 58.4836 16.9044 57.9777 18.2247 57.9777H18.2598C17.2643 54.7867 16.7596 51.4629 16.763 48.1203C16.763 29.8895 31.5426 15.1086 49.7762 15.1086C68.0094 15.1086 82.7891 29.8879 82.7891 48.1203C82.7919 51.4719 82.2837 54.8043 81.2817 58.0027C81.4411 57.9871 81.5973 57.9793 81.7508 57.9789C83.0712 57.9789 84.2641 58.4848 85.1071 59.4039C86.1903 60.584 86.6723 62.0336 86.4626 63.4844C86.3672 64.1516 86.1372 64.7922 85.7872 65.368C86.5145 65.9566 87.0504 66.7762 87.3094 67.7617C87.4883 68.4445 87.5208 69.1574 87.4044 69.8539C87.2883 70.55 87.0258 71.2137 86.6344 71.8012C86.7036 71.9086 86.7692 72.0207 86.8286 72.1359Z" fill="white"/>
<path d="M86.6346 71.8011C87.026 71.2136 87.2885 70.55 87.4049 69.8539C87.5209 69.1574 87.4885 68.4445 87.3096 67.7617C87.0502 66.7761 86.5143 65.9566 85.7873 65.3679C86.1377 64.7921 86.3674 64.1515 86.4627 63.4843C86.6725 62.0335 86.1909 60.5851 85.1073 59.4039C84.2643 58.4847 83.0713 57.9789 81.751 57.9789C81.5975 57.9789 81.4412 57.9871 81.2819 58.0027C82.2827 54.8043 82.7901 51.4722 82.7866 48.1211C82.7866 29.8898 68.0069 15.1094 49.7752 15.1094C31.5432 15.1094 16.7619 29.8883 16.7619 48.1211C16.7586 51.4636 17.2634 54.7875 18.2588 57.9785H18.2236C16.9033 57.9785 15.7108 58.4839 14.8674 59.4031C13.7842 60.5832 13.3022 62.0332 13.5119 63.4835C13.6075 64.1507 13.8374 64.7917 14.1877 65.3675C13.4604 65.9558 12.9245 66.7753 12.6651 67.7609C12.4863 68.4441 12.454 69.157 12.5705 69.8535C12.687 70.5496 12.9495 71.2136 13.3408 71.8011C13.2713 71.9097 13.2072 72.0218 13.1467 72.1371C12.4943 73.3757 12.4522 74.7753 13.0284 76.0789C13.9018 78.0542 16.0713 79.6105 20.285 81.2812C22.9049 82.3203 25.3045 82.9847 25.3256 82.9906C28.7913 83.8894 31.9256 84.346 34.6389 84.346C39.0944 84.346 42.4186 83.1273 44.5416 80.7195C48.1338 81.2894 51.7948 81.2683 55.3803 80.6578C57.5006 83.1062 60.844 84.346 65.337 84.346C68.0502 84.346 71.1846 83.8894 74.6498 82.9906C74.6713 82.9847 77.0698 82.3203 79.6909 81.2812C83.9045 79.6105 86.0745 78.0542 86.9475 76.0789C87.5233 74.7753 87.4815 73.3757 86.8288 72.1371C86.7694 72.021 86.7038 71.9085 86.6346 71.8011ZM43.0225 76.95C42.8397 77.2695 42.644 77.5816 42.4358 77.8851C41.887 78.6886 41.1651 79.3027 40.3272 79.7589C38.7256 80.6324 36.6983 80.9375 34.6389 80.9375C31.3854 80.9375 28.0502 80.1761 26.1811 79.6914C26.0889 79.6675 14.7225 76.457 16.1616 73.7242C16.4038 73.2644 16.8022 73.0808 17.3041 73.0808C19.3303 73.0808 23.0197 76.098 24.6053 76.098C24.9596 76.098 25.2096 75.9472 25.3115 75.5793C25.9873 73.1558 15.0408 72.1371 15.9627 68.6277C16.1252 68.0066 16.5666 67.7542 17.187 67.7542C19.8659 67.7539 25.8784 72.4652 27.1358 72.4652C27.2323 72.4652 27.3014 72.4367 27.3389 72.3773C27.3443 72.3683 27.3498 72.3597 27.3549 72.3503C27.9452 71.3757 27.6064 70.6671 23.5631 68.1906L23.1748 67.9543C18.7252 65.2613 15.6022 63.6406 17.3783 61.707C17.5826 61.4839 17.8725 61.3851 18.2244 61.3851C18.6416 61.3851 19.1467 61.5246 19.7029 61.7589C22.0529 62.75 25.31 65.4527 26.6706 66.6312C26.8846 66.8171 27.0972 67.005 27.3084 67.1941C27.3084 67.1941 29.0311 68.9855 30.0725 68.9855C30.3123 68.9855 30.5158 68.891 30.6537 68.6574C31.3924 67.4121 23.7932 61.6535 23.3647 59.2773C23.074 57.6675 23.5686 56.8519 24.4826 56.8519C24.9174 56.8519 25.4479 57.0371 26.0334 57.4085C27.8498 58.5613 31.3568 64.5878 32.6408 66.9324C33.0713 67.7179 33.8061 68.05 34.4682 68.05C35.7818 68.05 36.8088 66.7441 34.5885 65.0847C31.2514 62.5878 32.4225 58.5066 34.0151 58.2554C34.0831 58.2445 34.1518 58.239 34.2201 58.239C35.6686 58.239 36.3072 60.7347 36.3072 60.7347C36.3072 60.7347 38.1799 65.4371 41.3967 68.6515C44.3155 71.5691 44.7233 73.9632 43.0225 76.95ZM53.4245 77.5007L53.2577 77.5207L52.9733 77.5531C52.8237 77.5687 52.6737 77.5835 52.5233 77.5972L52.3768 77.6105L52.2428 77.6218L52.053 77.6371L51.8432 77.6523L51.6338 77.666L51.5873 77.6691C51.5327 77.6722 51.478 77.6757 51.4225 77.6785L51.3526 77.6824C51.2877 77.6859 51.2229 77.689 51.1573 77.6917L50.9303 77.7015L50.7245 77.7085L50.587 77.7125H50.517C50.4741 77.7125 50.4315 77.7148 50.3885 77.7152H50.3206C50.2776 77.7152 50.235 77.7152 50.192 77.7171L50.017 77.7195H49.7729C49.5811 77.7195 49.3897 77.7175 49.1991 77.7136L49.0444 77.7101C49.0002 77.7101 48.9561 77.7082 48.9127 77.7066L48.7487 77.7019L48.5452 77.6941L48.3616 77.6859L48.3143 77.6839L48.1397 77.675C48.0909 77.6722 48.0428 77.6699 47.9944 77.6664L47.8815 77.6597C47.7397 77.6507 47.5979 77.641 47.4561 77.63L47.3077 77.6179C47.2452 77.6132 47.1827 77.6074 47.1205 77.6019C47.0475 77.5957 46.9745 77.5886 46.9014 77.5816C46.7791 77.5703 46.6569 77.5578 46.5346 77.5445H46.5288C48.3139 73.5621 47.4112 69.8425 43.8038 66.2382C41.4377 63.8753 39.8639 60.3863 39.5373 59.6203C38.8764 57.3527 37.1272 54.832 34.2221 54.832C33.9764 54.832 33.7311 54.8515 33.4885 54.8898C32.2159 55.0902 31.1034 55.8226 30.3096 56.925C29.4518 55.8582 28.6182 55.0101 27.8643 54.5312C26.7276 53.8105 25.5932 53.4449 24.4881 53.4449C23.1088 53.4449 21.876 54.0113 21.0166 55.0386L20.9947 55.0648C20.9783 54.9972 20.9627 54.9296 20.9467 54.8617L20.9447 54.8527C20.7812 54.1535 20.6439 53.4484 20.533 52.7386C20.533 52.7339 20.533 52.7293 20.5307 52.7246C20.5221 52.671 20.5143 52.6171 20.5061 52.5636C20.482 52.405 20.4595 52.2461 20.4385 52.0871C20.4291 52.0148 20.4189 51.9425 20.41 51.8703L20.3834 51.6535C20.3748 51.5812 20.3678 51.5156 20.36 51.4468L20.3577 51.4296C20.3264 51.1484 20.2991 50.8671 20.2756 50.5851L20.267 50.4769L20.2533 50.2925C20.2494 50.2421 20.2455 50.1914 20.2428 50.1406C20.2428 50.1285 20.2408 50.1168 20.2404 50.1054C20.2305 49.964 20.222 49.8222 20.215 49.6804C20.2111 49.6066 20.2072 49.5332 20.2041 49.4589L20.1963 49.2652L20.1943 49.2066L20.1881 49.0281L20.1842 48.8761C20.1842 48.8156 20.1811 48.755 20.1803 48.6945C20.1791 48.6339 20.1775 48.5675 20.1772 48.5035C20.1764 48.4394 20.1772 48.3761 20.1752 48.3125C20.1736 48.2484 20.1752 48.1847 20.1752 48.1211C20.1752 31.7723 33.4295 18.518 49.7799 18.518C66.1299 18.518 79.3838 31.7719 79.3838 48.1211V48.5035C79.3838 48.5672 79.3819 48.6312 79.3807 48.6945C79.3807 48.7472 79.3784 48.7992 79.3768 48.8527C79.3768 48.8996 79.3748 48.9468 79.3733 48.9921C79.3733 49.0519 79.3698 49.1117 79.3678 49.1714V49.1761L79.3596 49.3836C79.3569 49.4441 79.3545 49.505 79.3514 49.5656L79.3495 49.6086L79.3389 49.8023C79.3159 50.2175 79.2842 50.632 79.2448 51.0461V51.0511C79.2381 51.1191 79.2315 51.1871 79.2241 51.255L79.2065 51.4156L79.1717 51.7296L79.1518 51.8886L79.1272 52.0757C79.1182 52.1437 79.1092 52.2121 79.0991 52.2796C79.0889 52.3558 79.0776 52.4316 79.0663 52.5074L79.0393 52.6867L79.0073 52.8898C78.9963 52.9574 78.9846 53.0246 78.9721 53.0918C78.9592 53.1593 78.9491 53.2265 78.9373 53.2937C78.9139 53.4281 78.8893 53.5625 78.8635 53.6964C78.8241 53.8968 78.7838 54.0968 78.7424 54.2968L78.6995 54.4949C78.6854 54.5609 78.6702 54.6273 78.6553 54.6933C77.8221 53.8836 76.7186 53.4425 75.5018 53.4425C74.3975 53.4425 73.262 53.8078 72.1256 54.5285C71.3717 55.0074 70.5385 55.8558 69.6803 56.9222C68.8854 55.8199 67.7729 55.0875 66.501 54.8871C66.2584 54.8488 66.0131 54.8293 65.7674 54.8293C62.8616 54.8293 61.1135 57.35 60.4522 59.6175C60.1241 60.3836 58.5498 63.8726 56.1819 66.239C52.5768 69.832 51.6674 73.5347 53.4245 77.5007ZM83.9874 69.5285L83.9756 69.5632C83.9459 69.6418 83.9116 69.7183 83.8729 69.7925C83.8436 69.8472 83.812 69.9003 83.7776 69.9519C83.7123 70.0492 83.6409 70.1421 83.5631 70.2296C83.5452 70.25 83.528 70.2703 83.5077 70.2902C83.4795 70.3203 83.451 70.35 83.4217 70.3789C82.8959 70.9 82.0944 71.357 81.1881 71.7761C81.0854 71.8226 80.9811 71.8691 80.876 71.916L80.7713 71.9625C80.7014 71.9933 80.6315 72.0238 80.558 72.0539C80.4881 72.0843 80.4155 72.1148 80.3428 72.1445L80.1248 72.2343C79.6151 72.4441 79.0928 72.6441 78.5834 72.8414L78.3655 72.9261L78.1502 73.0105C78.0069 73.0664 77.8655 73.1222 77.7264 73.1781L77.519 73.2617L77.3151 73.3449L77.2151 73.3871C77.1483 73.4148 77.083 73.4425 77.0178 73.4703C75.519 74.1136 74.4405 74.7679 74.667 75.5796C74.6733 75.6027 74.6803 75.6246 74.6881 75.646C74.7084 75.7062 74.7362 75.7628 74.7709 75.8164C74.7912 75.848 74.8147 75.8781 74.8409 75.9054C75.1073 76.1824 75.592 76.1386 76.2034 75.9187C76.2893 75.8871 76.3748 75.8543 76.4596 75.8199L76.5127 75.798C76.6526 75.7386 76.8006 75.6722 76.9518 75.6003C76.9897 75.5824 77.028 75.5652 77.0663 75.5453C77.8139 75.1796 78.6612 74.6875 79.5018 74.2394C79.8381 74.0578 80.1791 73.8855 80.5245 73.7218C81.3205 73.3472 82.069 73.0816 82.6705 73.0816C82.953 73.0816 83.2022 73.1394 83.41 73.2722L83.4448 73.2953C83.5752 73.3871 83.6846 73.505 83.7663 73.6418C83.7823 73.6679 83.7979 73.6957 83.8131 73.7242C84.1104 74.2886 83.8616 74.873 83.2791 75.446C82.7202 75.9964 81.8506 76.5359 80.8624 77.0351C80.7889 77.0722 80.7155 77.1093 80.6409 77.1457C77.6995 78.5902 73.8475 79.6781 73.794 79.6918C72.7674 79.9578 71.2995 80.307 69.6456 80.5683L69.401 80.6066L69.3608 80.6125C69.1756 80.6406 68.9901 80.6668 68.8041 80.691C68.6155 80.7164 68.4248 80.7394 68.233 80.7609L68.1979 80.7648C67.5026 80.8449 66.8045 80.898 66.1049 80.9234H66.0948C65.8416 80.9324 65.5889 80.9371 65.3358 80.9371H65.044C64.658 80.932 64.2729 80.9144 63.8881 80.8847C63.8791 80.8847 63.8694 80.8847 63.8604 80.8824C63.7225 80.8718 63.585 80.8589 63.4475 80.8437C63.3049 80.8285 63.1627 80.8113 63.0209 80.7921C62.9276 80.7796 62.8346 80.7656 62.7416 80.7503C62.6471 80.7351 62.5526 80.7195 62.4584 80.7031L62.3299 80.6789L62.3202 80.6769C62.1846 80.6511 62.0498 80.6226 61.9155 80.5914C61.8373 80.5738 61.7596 80.5566 61.6827 80.5355L61.6362 80.5238C61.5979 80.5144 61.5608 80.5043 61.5229 80.4941L61.5022 80.4886L61.3819 80.4535C61.3381 80.4414 61.2944 80.4281 61.2506 80.4152L61.2354 80.4109L61.1217 80.3761C61.0788 80.3628 61.0358 80.3488 60.9932 80.3347L60.8885 80.3L60.8116 80.273C60.7373 80.2468 60.6635 80.2199 60.5905 80.1917L60.5209 80.1644L60.4635 80.1418C60.3526 80.0972 60.2424 80.0507 60.1334 80.0019L60.0612 79.9668L60.0491 79.9613C60.0233 79.9492 59.9979 79.9371 59.9721 79.9265C59.9217 79.9023 59.8717 79.8773 59.8221 79.8519L59.8069 79.8445L59.735 79.8066C59.6073 79.7398 59.4823 79.6687 59.3596 79.5933L59.2924 79.5519C59.2588 79.5312 59.2252 79.5097 59.1924 79.4878L59.1049 79.43L59.0108 79.3652L58.9545 79.325C58.8952 79.2828 58.837 79.239 58.7799 79.1941L58.6889 79.1242C58.6526 79.0949 58.6166 79.0652 58.5811 79.0351C58.551 79.0105 58.5217 78.9847 58.4924 78.9589L58.4901 78.957C58.4584 78.9292 58.4276 78.9015 58.3967 78.873C58.3662 78.8453 58.3358 78.8171 58.3061 78.7886L58.3026 78.7851C58.2713 78.7554 58.2409 78.7253 58.2108 78.6945C58.1807 78.664 58.1498 78.6335 58.1205 78.6023C58.0913 78.5714 58.0612 78.5398 58.0323 78.5074C58.0034 78.4753 57.9768 78.446 57.9495 78.4144L57.9405 78.4039C57.9139 78.3734 57.8877 78.3425 57.862 78.3109C57.8061 78.2441 57.7518 78.1757 57.6995 78.1058C57.6467 78.0355 57.5952 77.9636 57.5448 77.8906L57.4967 77.8187C57.4327 77.725 57.3702 77.6304 57.3096 77.5343C57.2643 77.4652 57.2202 77.3957 57.1772 77.325C57.1495 77.2808 57.1229 77.2363 57.0963 77.1925L57.0854 77.1746C57.06 77.1316 57.035 77.0894 57.0108 77.0468C56.9967 77.0238 56.9834 77.0007 56.9709 76.9769C56.958 76.9527 56.9432 76.9281 56.9295 76.9035L56.9073 76.8648L56.8936 76.8398C56.8674 76.7929 56.8416 76.7457 56.8166 76.698C56.8049 76.6769 56.7936 76.6558 56.7815 76.6355L56.7467 76.5679L56.7116 76.5011C56.6237 76.3253 56.5405 76.1472 56.4623 75.9668L56.4346 75.9007C56.4166 75.8566 56.3998 75.8128 56.3819 75.7695C56.3733 75.7484 56.3647 75.7277 56.3573 75.7066C56.3155 75.5984 56.2764 75.489 56.2405 75.3789C56.2276 75.3394 56.2151 75.3007 56.2034 75.2617C56.1752 75.173 56.1498 75.0835 56.1272 74.9933C56.0995 74.8882 56.0748 74.7824 56.0541 74.6757C56.0498 74.6543 56.0455 74.6328 56.042 74.6121C56.0217 74.5078 56.0053 74.4027 55.9924 74.2972C55.9893 74.2765 55.987 74.2558 55.9846 74.2351L55.978 74.1718C55.9694 74.089 55.9627 74.0058 55.9588 73.9226C55.9588 73.9015 55.9569 73.8804 55.9561 73.8601C55.9541 73.8187 55.9534 73.7773 55.953 73.7359C55.9311 72.0667 56.7756 70.4621 58.5815 68.657C61.7983 65.4433 63.6709 60.7406 63.6709 60.7406C63.6709 60.7406 63.7213 60.5433 63.826 60.2593C63.8405 60.2199 63.8557 60.1793 63.8729 60.1367C63.9338 59.9777 64.0026 59.8214 64.0788 59.6691L64.094 59.6398C64.1588 59.5101 64.2299 59.3836 64.3065 59.2605C64.3245 59.232 64.3416 59.2039 64.3616 59.1753C64.419 59.0906 64.4795 59.0078 64.5432 58.9277C64.578 58.8843 64.6159 58.8414 64.6538 58.7996C64.669 58.7832 64.6838 58.7668 64.6998 58.7511C64.8862 58.5586 65.0991 58.4015 65.3401 58.3179L65.3706 58.3078C65.3909 58.3011 65.4112 58.2949 65.4319 58.289C65.4557 58.2828 65.4795 58.2773 65.5041 58.2722L65.5155 58.2699C65.5662 58.2597 65.6178 58.2531 65.6698 58.2496H65.6741C65.701 58.2496 65.7284 58.2468 65.7561 58.2468C65.7909 58.2468 65.8233 58.2468 65.8573 58.2504C65.8924 58.2535 65.9272 58.2574 65.9623 58.2628C66.2522 58.3089 66.528 58.4816 66.7655 58.748C66.8557 58.8496 66.937 58.9589 67.008 59.0746C67.0549 59.1496 67.0991 59.2289 67.1409 59.3125C67.1577 59.3472 67.1737 59.3793 67.1893 59.4136C67.2299 59.5019 67.2666 59.5918 67.2987 59.6835C67.3748 59.8984 67.4323 60.1195 67.4702 60.3445C67.503 60.5418 67.5225 60.741 67.5288 60.9406C67.5319 61.0472 67.5319 61.1554 67.5288 61.2644C67.5077 61.7714 67.4038 62.2718 67.2213 62.7457C67.2049 62.789 67.1866 62.8328 67.169 62.8765C67.133 62.9648 67.0936 63.0515 67.051 63.1363C67.0194 63.2007 66.9862 63.2656 66.9502 63.33C66.9268 63.373 66.9022 63.416 66.8776 63.4589C66.8147 63.566 66.7467 63.6722 66.6737 63.7781L66.6295 63.8414C66.4569 64.082 66.2647 64.3078 66.0545 64.5164C65.8475 64.7238 65.6256 64.9156 65.3909 65.0906C65.1557 65.2648 64.935 65.4578 64.7311 65.6675C64.144 66.2836 64.0073 66.8273 64.1393 67.2394C64.1604 67.3043 64.1881 67.3671 64.2217 67.4265C64.2612 67.4945 64.3081 67.557 64.3612 67.614L64.3819 67.6355L64.403 67.6566C64.4241 67.6769 64.4463 67.6968 64.4702 67.7164L64.4936 67.7351C64.5502 67.7789 64.6104 67.8179 64.6733 67.8523C64.6916 67.8621 64.708 67.8718 64.7288 67.8812C64.7967 67.9144 64.8666 67.9429 64.9385 67.966C64.9584 67.9726 64.9784 67.9785 64.9987 67.9847L65.0241 67.9914L65.0592 68.0007L65.0893 68.0082L65.1221 68.0152L65.1545 68.0218L65.1854 68.0269C65.208 68.0308 65.2315 68.0347 65.2549 68.0375L65.2772 68.041L65.3178 68.0449L65.3428 68.0476L65.3838 68.0503H65.4081L65.451 68.0527H65.5862L65.6248 68.0503L65.6694 68.0476L65.7237 68.0425L65.7745 68.0367C65.7862 68.0367 65.7979 68.0335 65.8096 68.0312C65.9659 68.0085 66.119 67.9671 66.2655 67.9078L66.3276 67.8816C66.3623 67.8664 66.3975 67.8503 66.4295 67.8332C66.4983 67.7988 66.5651 67.7597 66.6291 67.7171C66.7186 67.6585 66.803 67.5929 66.8819 67.5207C66.9006 67.5039 66.919 67.4859 66.937 67.4687C66.9459 67.4601 66.9545 67.4519 66.9631 67.4425C66.9803 67.425 66.9979 67.4078 67.0151 67.3886C67.1401 67.2511 67.2483 67.0996 67.3373 66.9367C68.1018 65.5464 68.903 64.1769 69.7401 62.8296L69.8549 62.6457L69.9709 62.4617C70.0288 62.3683 70.0873 62.2765 70.1455 62.1851L70.2041 62.0937C70.3987 61.789 70.5963 61.4863 70.7975 61.1859L70.9166 61.0078C71.1557 60.6535 71.394 60.3089 71.6303 59.9816L71.7479 59.8195C72.0049 59.4652 72.2725 59.1183 72.5502 58.78L72.6604 58.648C72.6787 58.6261 72.6955 58.6043 72.7155 58.5832C72.7518 58.5402 72.7881 58.4984 72.8237 58.4578C72.8416 58.4371 72.8584 58.4168 72.8776 58.3964L72.9823 58.2785L73.0346 58.221C73.0873 58.1644 73.1389 58.1101 73.1897 58.0582C73.2248 58.023 73.2573 57.9882 73.2909 57.9554C73.4889 57.7531 73.7073 57.5714 73.9428 57.414L73.9975 57.3789C74.0498 57.3437 74.1041 57.3109 74.1596 57.2812C75.0831 56.757 75.8475 56.7183 76.2877 57.1585C76.5541 57.425 76.7018 57.8668 76.6936 58.4816C76.6936 58.5085 76.6936 58.5359 76.6916 58.564V58.5941C76.6916 58.6222 76.6893 58.6503 76.687 58.6789C76.687 58.714 76.683 58.7488 76.6795 58.7839C76.676 58.8187 76.6741 58.8453 76.6705 58.8765C76.6705 58.8851 76.669 58.8941 76.6674 58.9035C76.6651 58.9304 76.6616 58.9582 76.6577 58.9859C76.6577 58.9941 76.6577 59.0027 76.6545 59.0113C76.6502 59.0484 76.6448 59.0851 76.6385 59.1218C76.6342 59.157 76.6284 59.1898 76.6221 59.2242L76.612 59.2824C76.6018 59.3378 76.5889 59.3925 76.5729 59.4464C76.5424 59.5476 76.5057 59.6464 76.4623 59.7425C76.4018 59.8746 76.335 60.0031 76.2616 60.1281C76.2209 60.1976 76.1791 60.266 76.1358 60.3335C76.0913 60.4035 76.0444 60.4742 75.9959 60.5457C75.8725 60.7222 75.7444 60.8953 75.6112 61.0644L75.5502 61.1414C75.333 61.4121 75.1088 61.6773 74.8776 61.9363L74.8045 62.0183C74.7061 62.1281 74.6061 62.2386 74.5038 62.3496L74.4268 62.4332C74.3756 62.489 74.3221 62.5449 74.2705 62.6011C74.2194 62.657 74.1659 62.7136 74.112 62.7703L73.9514 62.9394L73.7885 63.1097L73.6245 63.28C73.5143 63.3941 73.4038 63.5082 73.2924 63.6222C71.7084 65.2468 70.0397 66.866 69.4748 67.8753C69.437 67.941 69.403 68.0089 69.3725 68.0781C69.292 68.2617 69.2584 68.4187 69.2815 68.5457C69.2889 68.5875 69.3034 68.6273 69.3248 68.664C69.3565 68.7191 69.3952 68.7699 69.4401 68.8152C69.4608 68.8355 69.4827 68.8542 69.5057 68.8714C69.6221 68.9543 69.7623 68.9968 69.9053 68.9929H69.9498L69.9956 68.9894L70.0412 68.9843L70.0791 68.9789C70.0842 68.9781 70.0897 68.9773 70.0948 68.9757L70.1295 68.9691L70.1385 68.9671L70.1772 68.9589L70.1909 68.9554C70.2045 68.9519 70.2178 68.9484 70.2315 68.9445C70.2452 68.9406 70.2639 68.9355 70.2803 68.93C70.3491 68.9093 70.4163 68.8847 70.4823 68.8566C70.517 68.8425 70.551 68.8273 70.5846 68.8109C70.6022 68.8031 70.6198 68.7949 70.6362 68.7863L70.6885 68.7605C70.8135 68.6957 70.9354 68.625 71.0541 68.5492L71.1061 68.514C71.1237 68.5031 71.1413 68.4917 71.1581 68.4793L71.21 68.4445L71.2377 68.4253L71.3127 68.3726C71.3827 68.3246 71.4479 68.275 71.5139 68.2246L71.5198 68.2199L71.6248 68.1386C71.7682 68.0253 71.9041 67.9113 72.0276 67.8039L72.1096 67.732L72.117 67.725L72.16 67.6871C72.2608 67.5964 72.3506 67.5121 72.4252 67.4425L72.4561 67.4125C72.483 67.3871 72.5077 67.3632 72.5299 67.3429L72.5737 67.2996L72.5893 67.2843L72.5936 67.28L72.6393 67.2343L72.6682 67.2043L72.6717 67.2015L72.6854 67.189L72.7026 67.1734L72.708 67.1683L72.7225 67.155L72.8022 67.0851L72.8467 67.0453C72.8705 67.0246 72.8936 67.0035 72.9166 66.982L72.9698 66.9347C72.9795 66.9269 72.9889 66.9183 72.9987 66.9097L73.0545 66.8609L73.1366 66.7886L73.1803 66.7507C73.3502 66.6031 73.5569 66.4246 73.7944 66.2234L73.8916 66.141L74.0522 66.0062L74.2166 65.8691C74.4315 65.6906 74.6627 65.5011 74.9073 65.3046L75.0678 65.1757C75.2045 65.0667 75.3448 64.9558 75.487 64.8441C75.5444 64.7992 75.6026 64.7543 75.662 64.7097C75.8073 64.5968 75.9534 64.4847 76.1006 64.3742C76.4358 64.121 76.7815 63.8675 77.1315 63.6207L77.2815 63.516C77.3866 63.4437 77.4913 63.371 77.5959 63.3003L77.6909 63.2363C77.878 63.1093 78.0678 62.9855 78.2592 62.8648L78.3541 62.805L78.4483 62.7464C78.5428 62.6878 78.6366 62.6304 78.7299 62.5746L78.8233 62.5187L79.01 62.4101L79.1932 62.305L79.2303 62.2847L79.3752 62.205C79.4358 62.1722 79.4959 62.1406 79.5561 62.1097L79.6455 62.0636L79.7327 62.0199C79.7631 62.0054 79.7932 61.9902 79.8229 61.9757C80.019 61.8789 80.219 61.7898 80.4221 61.7085C80.4772 61.6851 80.5319 61.664 80.5862 61.6457L80.7463 61.5894C80.7944 61.5734 80.8412 61.5582 80.8862 61.5445L80.9018 61.5398C80.926 61.532 80.9502 61.525 80.9741 61.5187L80.9811 61.5168C81.0311 61.5023 81.0807 61.4898 81.1295 61.4781H81.133C81.2713 61.4449 81.4119 61.421 81.5537 61.4066C81.619 61.4 81.6842 61.3964 81.7498 61.3968H81.7827C81.8264 61.3968 81.8686 61.3996 81.9104 61.4039C81.9295 61.4039 81.9487 61.4078 81.9674 61.4101H81.9752C81.994 61.4125 82.0127 61.4152 82.0315 61.4195C82.0498 61.423 82.0686 61.4261 82.0866 61.4304H82.0924C82.1108 61.4343 82.1272 61.439 82.1463 61.4445C82.2456 61.4722 82.3401 61.5152 82.4268 61.5714C82.4694 61.5992 82.5092 61.6304 82.5459 61.6652L82.5565 61.6753C82.5635 61.6816 82.5702 61.6882 82.5764 61.6949L82.5956 61.7156C82.7526 61.88 82.8823 62.0687 82.9799 62.2742L82.9948 62.3093C83.028 62.3875 83.0541 62.4683 83.0729 62.5507C83.1284 62.8031 83.1069 63.0664 83.0112 63.3066C82.9748 63.4035 82.9307 63.4968 82.8788 63.5859C82.7573 63.7906 82.6131 63.9808 82.4495 64.1531L82.4147 64.1902C82.3627 64.2449 82.3088 64.2996 82.2522 64.3543C82.2272 64.3789 82.201 64.4031 82.1749 64.4277L82.0948 64.5015L82.053 64.5386C81.9522 64.6285 81.8487 64.7156 81.7436 64.8C81.6799 64.8515 81.6159 64.9019 81.551 64.9515C81.3221 65.1265 81.0889 65.2953 80.8514 65.4582C80.7081 65.5566 80.5635 65.6531 80.4178 65.7484C80.0588 65.9839 79.6959 66.2136 79.3295 66.4371C78.5608 66.9097 77.7088 67.4152 76.8006 67.9648L76.5655 68.1074C76.3081 68.2644 76.0651 68.4144 75.8362 68.5574L75.7209 68.6296L75.503 68.7695C75.3584 68.8621 75.2143 68.9554 75.0702 69.0488L74.9541 69.1253C74.8975 69.1621 74.8413 69.1996 74.785 69.2371L74.7299 69.2722L74.5612 69.3859L74.4717 69.4472L74.367 69.5199L74.2698 69.5875C74.1069 69.7027 73.9553 69.8125 73.8159 69.9168L73.7635 69.9566C73.6815 70.0187 73.6002 70.082 73.5202 70.1464C73.3995 70.2437 73.2893 70.3367 73.1905 70.4261L73.142 70.4703C73.1143 70.4957 73.087 70.521 73.0608 70.546C73.0428 70.5636 73.026 70.5812 73.0073 70.598L72.9823 70.623C72.9264 70.6793 72.8717 70.7367 72.819 70.7957L72.7932 70.8253C72.7358 70.8918 72.6858 70.9554 72.642 71.0175L72.6225 71.0453C72.5881 71.0953 72.5565 71.1468 72.528 71.2C72.5205 71.2132 72.5139 71.2265 72.5073 71.2398L72.4881 71.2796L72.4752 71.3085L72.467 71.3281L72.4604 71.3457L72.4514 71.3695C72.4272 71.4355 72.4104 71.5042 72.4006 71.5738L72.3975 71.598L72.3952 71.6207V71.7437C72.3952 71.7539 72.3952 71.764 72.3979 71.775L72.3998 71.7937C72.3998 71.8039 72.4022 71.8136 72.4038 71.8246C72.4053 71.8347 72.408 71.8531 72.4112 71.8675V71.8695C72.4139 71.8832 72.4166 71.8964 72.4202 71.9101C72.4237 71.9238 72.4272 71.9394 72.4315 71.9535C72.4389 71.9812 72.4483 72.0086 72.458 72.0359C72.4643 72.0523 72.4702 72.0683 72.4768 72.0843C72.4768 72.0875 72.4791 72.091 72.4807 72.0941L72.4948 72.1257L72.5143 72.1691C72.5354 72.214 72.5584 72.2578 72.5834 72.3003L72.6092 72.3449L72.6358 72.3894C72.6405 72.3968 72.6459 72.4039 72.6518 72.4105L72.6604 72.4195L72.6702 72.4285L72.6803 72.4363C72.6952 72.4468 72.7112 72.455 72.728 72.4609C72.737 72.464 72.7463 72.4664 72.7557 72.4687C72.9811 72.5195 73.4444 72.3332 74.06 72.0082C74.0948 71.9894 74.133 71.9699 74.1702 71.9496L74.3577 71.8472L74.4491 71.7964C74.5143 71.7617 74.5807 71.7222 74.6487 71.6835L74.7725 71.6136C75.5862 71.1453 76.558 70.5437 77.5627 69.9562C77.6569 69.9011 77.7514 69.846 77.8459 69.7918L78.0358 69.6703C78.2561 69.5441 78.4776 69.4195 78.6998 69.2964C78.9799 69.1425 79.262 68.9925 79.5467 68.8472L79.7327 68.7531C79.8561 68.6921 79.9784 68.6328 80.0991 68.575C80.3327 68.464 80.569 68.3586 80.808 68.2589L80.9389 68.2058L80.9545 68.1996C81.6479 67.925 82.2764 67.7554 82.785 67.7554C82.8948 67.7543 83.0049 67.7636 83.1131 67.7824H83.1166C83.1514 67.7886 83.1831 67.7957 83.2155 67.8035H83.2213C83.3045 67.8246 83.3854 67.8546 83.462 67.8933C83.5694 67.9488 83.6659 68.0226 83.7475 68.1117C83.785 68.1531 83.8182 68.198 83.8475 68.2457C83.9022 68.3296 83.9452 68.4207 83.976 68.516C83.9885 68.5531 83.9995 68.5894 84.0108 68.6281C84.0932 68.9238 84.085 69.2375 83.9874 69.5285Z" fill="#FF9D00"/>
<path fill-rule="evenodd" clip-rule="evenodd" d="M79.379 48.318V48.1262C79.379 31.777 66.1298 18.5234 49.7794 18.5234C33.4294 18.5234 20.1751 31.7777 20.1751 48.1262V48.1902C20.1743 48.2328 20.1739 48.2754 20.1751 48.318C20.177 48.3816 20.1777 48.4453 20.177 48.509L20.179 48.6496L20.1802 48.7C20.1802 48.7234 20.181 48.7465 20.1818 48.7699C20.1829 48.807 20.1837 48.8445 20.1837 48.8816L20.188 49.0336L20.1942 49.2121L20.1962 49.2707L20.204 49.4555V49.4645C20.2071 49.5367 20.2111 49.6086 20.2146 49.6805L20.2149 49.6859C20.2188 49.7594 20.2228 49.8332 20.2275 49.907C20.2314 49.975 20.2352 50.043 20.2403 50.1109L20.2411 50.123C20.2445 50.1813 20.2484 50.2398 20.2528 50.298L20.254 50.3137L20.2669 50.4824L20.2681 50.4934C20.2704 50.5262 20.2727 50.559 20.2759 50.5906C20.2992 50.8723 20.3265 51.1539 20.3575 51.4348L20.3595 51.4523L20.3833 51.659L20.4099 51.8758L20.4294 52.023L20.4384 52.0922C20.4592 52.2516 20.4817 52.4105 20.5059 52.5691L20.5075 52.5797L20.5306 52.7297C20.6421 53.4441 20.7802 54.1543 20.9446 54.8586L20.9466 54.8672L20.9591 54.9199L20.9946 55.0703L21.0165 55.0441C21.8759 54.0168 23.1087 53.4504 24.488 53.4504C25.5934 53.4504 26.7275 53.816 27.8642 54.5367C28.6181 55.0156 29.4517 55.8637 30.3095 56.9305C31.1033 55.8281 32.2158 55.0953 33.4884 54.8953C33.7311 54.857 33.9763 54.8379 34.222 54.8375C37.1267 54.8375 38.8763 57.3582 39.5372 59.6258C39.8638 60.3918 41.4376 63.8809 43.811 66.241C47.4188 69.8453 48.3216 73.5645 46.536 77.5469H46.5423C46.6638 77.5606 46.786 77.573 46.9091 77.5844C46.9821 77.5914 47.0548 77.5984 47.1282 77.6047L47.154 77.607L47.3153 77.6207L47.4638 77.6324C47.6052 77.6434 47.747 77.6535 47.8892 77.6625L48.002 77.6691L48.0915 77.6746L48.147 77.6777L48.3216 77.6867L48.3692 77.6887L48.5524 77.6969L48.7563 77.7047L48.92 77.7094L48.9474 77.7102C48.9821 77.7117 49.0169 77.7129 49.0517 77.7129L49.0892 77.7141C49.3196 77.7195 49.5497 77.7223 49.7802 77.7219H50.0247L50.1993 77.7199C50.2423 77.718 50.2849 77.718 50.3282 77.718H50.3962L50.4552 77.7164C50.4782 77.7156 50.5013 77.7148 50.5247 77.7148H50.5946L50.7317 77.7113L50.938 77.7043L51.1649 77.6941C51.2306 77.6918 51.2954 77.6883 51.3602 77.6852L51.4302 77.6809L51.5341 77.6754L51.595 77.6719L51.6411 77.6688L51.8509 77.6551L52.0602 77.6398L52.2505 77.6246L52.3841 77.6133L52.531 77.6C52.7763 77.5781 53.0208 77.5523 53.2653 77.523L53.4321 77.5031C51.6747 73.5375 52.5845 69.8344 56.177 66.2445C58.5454 63.8781 60.1192 60.3891 60.4474 59.6227C61.1087 57.3555 62.8571 54.8348 65.7626 54.8348C66.0083 54.8348 66.254 54.8543 66.4966 54.8926C67.7681 55.0926 68.8806 55.8254 69.6755 56.9277C70.5337 55.8613 71.3669 55.0125 72.1212 54.5336C73.2575 53.8133 74.3927 53.4477 75.497 53.4477C76.7142 53.4477 77.8173 53.8891 78.6505 54.6988C78.6657 54.6328 78.6806 54.5668 78.695 54.5004L78.7376 54.3027C78.7528 54.2305 78.7681 54.1582 78.7825 54.0859C78.8083 53.9582 78.8341 53.8305 78.8587 53.7016C78.8845 53.568 78.9091 53.4336 78.9325 53.2992L78.9446 53.2266C78.952 53.1836 78.9591 53.1406 78.9673 53.0973C78.9806 53.0301 78.9915 52.9629 79.0024 52.8949L79.0067 52.8691L79.0345 52.6922L79.0618 52.5129V52.5113C79.0817 52.3789 79.1005 52.2465 79.1181 52.1141L79.1224 52.0813L79.147 51.8945L79.1669 51.7352L79.202 51.4211L79.2157 51.2949L79.2192 51.2606C79.2267 51.1926 79.2337 51.1246 79.2399 51.0566V51.0512C79.245 50.9973 79.2505 50.943 79.2552 50.8887C79.2829 50.5809 79.3063 50.2715 79.3251 49.9609C79.3286 49.9102 79.3313 49.859 79.3345 49.8078V49.8055L79.3446 49.6137L79.347 49.5707C79.3532 49.441 79.3587 49.3113 79.363 49.1816V49.177L79.3649 49.1262C79.3669 49.0836 79.3685 49.0406 79.3685 48.9977L79.3692 48.9805C79.3708 48.9402 79.3724 48.8988 79.3724 48.8578L79.3735 48.8227C79.3747 48.7816 79.3759 48.741 79.3759 48.7L79.3767 48.6652C79.3778 48.6133 79.379 48.5609 79.379 48.509V48.318ZM42.4368 77.8906C44.7813 74.4527 44.6149 71.8723 41.3985 68.6574C38.1814 65.4422 36.3091 60.7406 36.3091 60.7406C36.3091 60.7406 35.6103 58.0098 34.0165 58.2605C32.4228 58.5113 31.2536 62.5922 34.5908 65.0902C37.9275 67.5883 33.9267 69.282 32.6423 66.9379C31.3579 64.5934 27.8513 58.5672 26.0333 57.4145C24.2153 56.2617 22.9368 56.9078 23.3653 59.2836C23.5782 60.4629 25.5579 62.4758 27.4075 64.3563C29.2841 66.2641 31.0266 68.0359 30.654 68.6629C29.9145 69.9078 27.3103 67.2 27.3103 67.2C27.3103 67.2 19.1556 59.7789 17.3806 61.7129C15.7438 63.4953 18.2677 65.0106 22.1568 67.3461C22.4872 67.5445 22.8279 67.7492 23.1767 67.9602C27.6263 70.6539 27.9724 71.3645 27.3407 72.3836C27.1075 72.7602 25.6181 71.866 23.786 70.7664C20.663 68.891 16.545 66.4188 15.9634 68.6316C15.4603 70.5469 18.4899 71.7203 21.2376 72.7848C23.5266 73.6715 25.6204 74.4824 25.3122 75.5832C24.9931 76.7246 23.263 75.7727 21.372 74.732C19.249 73.5637 16.9228 72.284 16.1615 73.7281C14.7228 76.4586 26.0872 79.673 26.181 79.6969C29.8529 80.6492 39.1778 82.6672 42.4368 77.8906ZM57.5403 77.8906C55.1958 74.4527 55.3622 71.8723 58.579 68.6574C61.7958 65.4422 63.6681 60.7406 63.6681 60.7406C63.6681 60.7406 64.3669 58.0098 65.9606 58.2605C67.5544 58.5113 68.7235 62.5922 65.3868 65.0902C62.0497 67.5883 66.0505 69.282 67.3349 66.9379C68.6196 64.5934 72.1239 58.5672 73.9419 57.4145C75.7599 56.2617 77.0392 56.9078 76.6102 59.2836C76.3977 60.4629 74.4177 62.4758 72.5681 64.3566C70.6915 66.2645 68.9489 68.0359 69.3212 68.6629C70.0606 69.9078 72.6669 67.1984 72.6669 67.1984C72.6669 67.1984 80.8212 59.7777 82.597 61.7117C84.2333 63.4938 81.7095 65.0094 77.82 67.3449C77.4798 67.5492 77.1399 67.7539 76.8005 67.959C72.3509 70.6527 72.0048 71.3633 72.636 72.382C72.8696 72.759 74.3591 71.8645 76.1907 70.7648C79.3142 68.8898 83.4321 66.4172 84.0138 68.6305C84.5173 70.5457 81.4872 71.7191 78.7395 72.7836C76.4505 73.6703 74.3567 74.4813 74.6645 75.582C74.9833 76.723 76.713 75.7711 78.6036 74.7305C80.7267 73.5621 83.0532 72.2816 83.8142 73.727C85.2532 76.459 73.8868 79.6703 73.795 79.6938C70.1231 80.6492 60.7981 82.6672 57.5403 77.8906Z" fill="#FFD21E"/>
<path fill-rule="evenodd" clip-rule="evenodd" d="M59.3935 40.068C59.8552 40.2313 60.1986 40.7282 60.5251 41.2012C60.9665 41.8403 61.3775 42.4352 62.0079 42.1C62.7517 41.7043 63.3615 41.0973 63.7599 40.3551C64.1587 39.6129 64.3286 38.7695 64.2482 37.9309C64.188 37.3039 63.9896 36.698 63.6669 36.157C63.3443 35.6159 62.9056 35.1532 62.3829 34.8021C61.8599 34.451 61.2654 34.2203 60.6427 34.1266C60.0196 34.0329 59.3837 34.0785 58.7806 34.2602C58.1775 34.4418 57.6224 34.7548 57.1548 35.1768C56.6872 35.5988 56.3189 36.1191 56.0767 36.7004C55.8345 37.2818 55.7239 37.9096 55.7532 38.5387C55.7829 39.168 55.9513 39.7825 56.247 40.3387C56.5392 40.8883 57.1876 40.6289 57.872 40.3551C58.4083 40.1407 58.9673 39.9172 59.3935 40.068ZM39.3251 40.068C38.8634 40.2313 38.52 40.7286 38.1935 41.2012C37.7521 41.8407 37.3407 42.4352 36.7107 42.1C35.7753 41.6047 35.058 40.7786 34.6985 39.7832C34.339 38.7877 34.3631 37.694 34.7661 36.7153C35.169 35.7366 35.922 34.943 36.8782 34.4893C37.8345 34.0355 38.9254 33.9542 39.9384 34.261C40.745 34.5039 41.4614 34.9804 41.9974 35.6303C42.5333 36.2803 42.8642 37.0745 42.9489 37.9125C43.0333 38.7506 42.8673 39.595 42.472 40.3387C42.1794 40.8883 41.531 40.6289 40.8466 40.3555C40.3099 40.1407 39.7517 39.9172 39.3251 40.068ZM56.2888 58.3301C59.4697 55.8243 60.638 51.7329 60.638 49.2125C60.638 47.2204 59.2978 47.8473 57.1521 48.9098L57.031 48.9696C55.0614 49.945 52.4396 51.2438 49.5614 51.2438C46.6829 51.2438 44.0611 49.945 42.0919 48.9692C39.8767 47.8719 38.4872 47.1836 38.4872 49.2129C38.4872 51.8129 39.7302 56.0821 43.1419 58.5621C43.5923 57.6485 44.2263 56.8375 45.0044 56.1797C45.7822 55.5219 46.6876 55.0317 47.6634 54.7395C48.004 54.6379 48.3548 55.2243 48.7138 55.8247C49.0603 56.4036 49.4146 56.9957 49.7747 56.9957C50.1587 56.9957 50.5357 56.4121 50.904 55.8426C51.2888 55.2469 51.6642 54.6668 52.0271 54.7829C53.8532 55.3692 55.381 56.6407 56.2888 58.3301Z" fill="#32343D"/>
<path d="M56.2877 58.3287C54.6311 59.6342 52.4291 60.5096 49.5615 60.5096C46.8674 60.5096 44.7604 59.7369 43.1416 58.5608C43.592 57.6471 44.226 56.8358 45.0041 56.1783C45.7818 55.5205 46.6873 55.0303 47.6631 54.7381C48.3318 54.5385 49.0408 56.9944 49.7744 56.9944C50.5596 56.9944 51.3162 54.5545 52.0268 54.7815C53.8525 55.3682 55.3799 56.6397 56.2877 58.3287Z" fill="#FF323D"/>
<path fill-rule="evenodd" clip-rule="evenodd" d="M31.7192 43.6105C31.3408 43.8636 30.9056 44.0195 30.4525 44.064C29.9993 44.1089 29.5421 44.041 29.1215 43.8664C28.7853 43.7277 28.4798 43.5238 28.2226 43.2664C27.9654 43.0093 27.7615 42.7039 27.6227 42.3675C27.4485 41.9468 27.3807 41.4898 27.4255 41.0367C27.4703 40.5836 27.6262 40.1484 27.8794 39.7699C28.1836 39.3144 28.616 38.9595 29.122 38.7498C29.628 38.5402 30.1848 38.4854 30.722 38.5923C31.2592 38.6993 31.7525 38.9631 32.1397 39.3504C32.5268 39.7379 32.7904 40.2316 32.8969 40.7687C33.0037 41.3058 32.9488 41.8625 32.7392 42.3683C32.5297 42.8742 32.1744 43.3062 31.7192 43.6105ZM71.3337 43.6105C70.9551 43.8636 70.52 44.0195 70.0669 44.064C69.6133 44.1089 69.1563 44.041 68.7356 43.8664C68.3993 43.7273 68.0938 43.5238 67.8368 43.2664C67.5798 43.0093 67.3758 42.7039 67.2368 42.3675C67.063 41.9468 66.9954 41.4898 67.0399 41.0367C67.0848 40.5836 67.2407 40.1484 67.4934 39.7699C67.7208 39.4293 68.0212 39.1437 68.3723 38.9331C68.7235 38.7226 69.1169 38.5926 69.5243 38.5526C69.9321 38.5125 70.3434 38.5634 70.7286 38.7014C71.1141 38.8396 71.4641 39.0614 71.7536 39.3511C72.1411 39.7382 72.4048 40.2316 72.5114 40.7687C72.6184 41.3058 72.5633 41.8625 72.3536 42.3683C72.1438 42.8742 71.7891 43.3062 71.3337 43.6105Z" fill="#FFAD03"/>
</svg>
