<svg width="100" height="100" viewBox="0 0 100 100" fill="none" xmlns="http://www.w3.org/2000/svg">
<path d="M50 0C77.6105 0 100 22.3895 100 50C100 77.6105 77.6105 100 50 100C22.3895 100 0 77.6105 0 50C0 22.3895 22.3895 0 50 0Z" fill="white"/>
<mask id="mask0_5153_34608" style="mask-type:luminance" maskUnits="userSpaceOnUse" x="19" y="32" width="61" height="38">
<path d="M79.7494 32.5H19.4609V70H79.7494V32.5Z" fill="white"/>
</mask>
<g mask="url(#mask0_5153_34608)">
<path d="M19.6342 35.6731C18.9996 34.1154 20.1534 32.5 21.7688 32.5H31.9226C32.9034 32.5 33.7111 33.0769 34.0573 33.9423L42.1342 54.1346C42.3649 54.6538 42.3649 55.2885 42.1342 55.8654L37.0573 68.5577C36.3073 70.5192 33.538 70.5192 32.7303 68.5577L19.6342 35.6731Z" fill="url(#paint0_linear_5153_34608)"/>
<path d="M39.2493 35.6154C38.7301 34.1154 39.8262 32.5 41.4416 32.5H50.3262C51.307 32.5 52.1724 33.1346 52.5185 34L59.9031 54.1923C60.0762 54.7115 60.0762 55.2308 59.9031 55.75L55.4608 67.8654C54.7108 69.8846 51.8262 69.8846 51.0762 67.8654L39.2493 35.6154Z" fill="url(#paint1_linear_5153_34608)"/>
<path d="M57.0189 35.6731C56.3843 34.1154 57.5382 32.5 59.1536 32.5H69.3074C70.2882 32.5 71.0959 33.0769 71.442 33.9423L79.5189 54.1346C79.7497 54.6538 79.7497 55.2885 79.5189 55.8654L74.442 68.5577C73.692 70.5192 70.9228 70.5192 70.1151 68.5577L57.0189 35.6731Z" fill="url(#paint2_linear_5153_34608)"/>
</g>
<defs>
<linearGradient id="paint0_linear_5153_34608" x1="17.9147" y1="44.5421" x2="47.4802" y2="57.2988" gradientUnits="userSpaceOnUse">
<stop stop-color="#F213A4"/>
<stop offset="0.1517" stop-color="#E011A7"/>
<stop offset="0.4554" stop-color="#B20DAF"/>
<stop offset="0.8789" stop-color="#6806BB"/>
<stop offset="1" stop-color="#5204BF"/>
</linearGradient>
<linearGradient id="paint1_linear_5153_34608" x1="37.3742" y1="45.2363" x2="64.9296" y2="56.2205" gradientUnits="userSpaceOnUse">
<stop stop-color="#F213A4"/>
<stop offset="0.1517" stop-color="#E011A7"/>
<stop offset="0.4554" stop-color="#B20DAF"/>
<stop offset="0.8789" stop-color="#6806BB"/>
<stop offset="1" stop-color="#5204BF"/>
</linearGradient>
<linearGradient id="paint2_linear_5153_34608" x1="55.2894" y1="44.5421" x2="84.8548" y2="57.2988" gradientUnits="userSpaceOnUse">
<stop stop-color="#F213A4"/>
<stop offset="0.1517" stop-color="#E011A7"/>
<stop offset="0.4554" stop-color="#B20DAF"/>
<stop offset="0.8789" stop-color="#6806BB"/>
<stop offset="1" stop-color="#5204BF"/>
</linearGradient>
</defs>
</svg>
